:SAMPLES-PER-SECOND 24
:FULLY-SPECIFIED
:DEGREES
480
root  7.3321 37.642 -33.6564 0.412277 -31.6948 5.82259
RightUpLeg  -36.5099 -53.3701 -0.292316
RightLeg  40.2041 -4.81969 -4.63534
RightFoot  -11.7283 -0.0773386 0.619292
RightToes  -1.46215e-006 3.27826e-006 1.63871e-007
Spine  3.0521 -6.02876 1.77093
Spine1  9.52443 -9.12757 10.3568
HEad  -54.7122 61.5123 -73.4226
LeftShoulder1  -0.0460969 3.9735 -1.52323
LeftArm  -99.9194 -63.6241 68.6799
LeftForeArm  162.453 -80.3987 -120.853
LeftHand  -0.803569 1.8356 26.0253
RightShoulder  3.81963 6.82156 31.0949
RightArm  12.4022 -39.3329 27.4131
RightForeArm  81.954 60.2651 156.446
RightHand  2.5341 -11.306 -46.3108
LeftUpLeg  1.5203 41.5281 24.4338
LeftLeg  35.6476 12.5139 9.83098
LeftFoot  13.0493 3.15345 -14.8945
LeftToes  1.24762e-006 1.46925e-008 1.29056e-009
481
root  7.97054 37.7077 -34.2005 0.363632 -21.0867 5.011
RightUpLeg  -31.5443 -50.7536 -5.52709
RightLeg  39.5214 -6.21669 -5.75249
RightFoot  -9.39596 -0.066106 0.312855
RightToes  -1.46215e-006 3.27826e-006 1.63871e-007
Spine  3.07279 -6.10344 -2.04252
Spine1  9.4719 -10.0232 12.4473
HEad  -52.1678 61.265 -70.8924
LeftShoulder1  0.0116075 3.38959 -1.63895
LeftArm  -93.838 -64.0722 58.792
LeftForeArm  159.831 -80.41 -119.953
LeftHand  -0.865617 1.74924 27.3482
RightShoulder  3.8637 6.75458 31.7736
RightArm  9.27971 -38.3345 27.1466
RightForeArm  87.4544 58.8397 157.838
RightHand  2.13571 -10.1959 -47.7881
LeftUpLeg  0.565052 46.9894 24.7541
LeftLeg  32.0679 7.58053 5.44278
LeftFoot  6.96474 3.12621 -19.438
LeftToes  1.24762e-006 1.46925e-008 1.29056e-009
482
root  8.60309 37.5365 -34.6474 0.175232 -8.99561 3.95694
RightUpLeg  -24.998 -48.4482 -12.6806
RightLeg  40.5174 -8.1474 -7.65829
RightFoot  -7.01858 -0.0969633 1.09094
RightToes  -1.46215e-006 3.27826e-006 1.63871e-007
Spine  3.21196 -6.57135 -6.00915
Spine1  9.65105 -11.56 15.621
HEad  -48.4773 60.913 -67.0427
LeftShoulder1  0.123984 2.35084 -2.59206
LeftArm  -88.2365 -64.1019 49.7565
LeftForeArm  154.203 -80.6836 -115.92
LeftHand  -0.807568 1.98648 27.2786
RightShoulder  3.89292 6.6369 32.504
RightArm  4.75285 -37.3465 27.3662
RightForeArm  92.8501 57.5907 158.996
RightHand  2.01568 -9.80665 -48.8796
LeftUpLeg  -4.88115 48.1217 21.7903
LeftLeg  30.9706 2.08067 1.71031
LeftFoot  2.15614 2.24676 -18.8943
LeftToes  1.24762e-006 1.46925e-008 1.29056e-009
483
root  9.12587 37.318 -34.9521 -0.259018 1.69144 2.18083
RightUpLeg  -16.0631 -39.2942 -20.7154
RightLeg  40.0573 -2.60193 -2.60086
RightFoot  -5.75291 -0.485159 8.85801
RightToes  -1.46215e-006 3.27826e-006 1.63871e-007
Spine  3.84879 -6.26843 -8.27484
Spine1  9.18648 -12.078 18.0725
HEad  -43.7667 60.1684 -62.9794
LeftShoulder1  0.266747 1.22955 -3.74771
LeftArm  -83.6244 -63.6508 40.0325
LeftForeArm  151.743 -80.8969 -113.147
LeftHand  -0.789644 2.11127 27.6808
RightShoulder  3.8796 6.46592 33.0308
RightArm  -1.25939 -35.8894 29.4978
RightForeArm  98.4446 56.2888 160.143
RightHand  1.70234 -8.9972 -50.2663
LeftUpLeg  -10.7079 42.6354 19.0963
LeftLeg  32.1055 -1.55832 -0.683189
LeftFoot  -1.1928 1.58145 -17.6087
LeftToes  1.24762e-006 1.46925e-008 1.29056e-009
484
root  9.3514 36.8758 -35.1086 -0.444687 9.79382 0.147568
RightUpLeg  -9.5337 -26.917 -24.6311
RightLeg  38.2644 6.97153 5.61246
RightFoot  -8.82809 -0.439546 17.1641
RightToes  -1.46215e-006 3.27826e-006 1.63871e-007
Spine  3.77376 -5.08484 -9.78961
Spine1  8.42162 -11.3677 19.1475
HEad  -39.0015 59.3902 -58.7397
LeftShoulder1  0.480996 0.00528965 -5.99431
LeftArm  -79.8974 -62.5528 29.624
LeftForeArm  150.895 -80.7407 -114.229
LeftHand  -0.717936 2.37281 27.3535
RightShoulder  3.86493 6.33012 33.4193
RightArm  -8.24525 -31.3978 31.779
RightForeArm  104.007 56.254 160.398
RightHand  1.13693 -7.70679 -51.6876
LeftUpLeg  -16.4046 35.9219 18.144
LeftLeg  35.4523 -3.90746 -2.5964
LeftFoot  -4.59966 1.06527 -17.5036
LeftToes  1.24762e-006 1.46925e-008 1.29056e-009
485
root  9.49337 36.6103 -35.1701 -0.572968 16.9798 -2.04008
RightUpLeg  -3.60048 -22.2531 -25.319
RightLeg  34.2107 13.0616 9.18001
RightFoot  -12.1628 0.0584169 20.0894
RightToes  -1.46215e-006 3.27826e-006 1.63871e-007
Spine  3.88225 -3.68673 -10.1178
Spine1  6.70375 -10.0353 20.6787
HEad  -33.7043 57.9024 -52.9723
LeftShoulder1  0.844021 -1.3751 -9.96029
LeftArm  -77.5283 -61.1719 19.6386
LeftForeArm  146.807 -80.7237 -112.806
LeftHand  -0.612095 2.66992 25.8813
RightShoulder  3.68938 6.12322 32.4404
RightArm  -17.7727 -23.59 32.1481
RightForeArm  109.051 56.7293 160.311
RightHand  1.26207 -7.92251 -52.4167
LeftUpLeg  -21.8548 29.4557 17.5291
LeftLeg  37.9703 -3.89214 -2.85307
LeftFoot  -5.51297 0.879859 -16.5586
LeftToes  1.24762e-006 1.46925e-008 1.29056e-009
